<?xml version="1.0" encoding="UTF-8"?>
<!DOCTYPE svg PUBLIC "-//W3C//DTD SVG 1.1//EN" "http://www.w3.org/Graphics/SVG/1.1/DTD/svg11.dtd"><svg version="1.1" viewBox="0 0 21000 14800" preserveAspectRatio="xMidYMid" fill-rule="evenodd" xmlns="http://www.w3.org/2000/svg" xmlns:xlink="http://www.w3.org/1999/xlink"><g visibility="visible" id="Обычный"><desc>Master slide</desc></g><g visibility="visible" id="page1"><desc>Slide</desc><g><desc>Drawing</desc><g><g style="stroke:none;fill:rgb(255,255,255)"><path d="M 10500,11500 L 9580,11477 8686,11409 7824,11298 6997,11146 6210,10957 5468,10731 4775,10472 4136,10182 3555,9862 3037,9516 2586,9145 2207,8751 1905,8338 1783,8125 1683,7907 1604,7685 1546,7460 1512,7232 1500,7000 1512,6768 1546,6540 1604,6315 1683,6093 1783,5875 1905,5662 2207,5249 2586,4855 3037,4484 3555,4138 4136,3818 4775,3528 5468,3269 6210,3043 6997,2854 7824,2702 8686,2591 9580,2523 10500,2500 11420,2523 12314,2591 13176,2702 14003,2854 14790,3043 15532,3269 16225,3528 16864,3818 17445,4138 17963,4484 18414,4855 18793,5249 19095,5662 19217,5875 19317,6093 19396,6315 19454,6540 19488,6768 19500,7000 19488,7232 19454,7460 19396,7685 19317,7907 19217,8125 19095,8338 18793,8751 18414,9145 17963,9516 17445,9862 16864,10182 16225,10472 15532,10731 14790,10957 14003,11146 13176,11298 12314,11409 11420,11477 10500,11500 Z"/></g><g style="stroke:none;fill:rgb(0,0,255)"><path d="M 10499,11530 L 9579,11507 9580,11477 9581,11447 10501,11470 10500,11500 10499,11530 Z"/><path d="M 9580,11477 L 9579,11507 9578,11507 9580,11477 Z"/><path d="M 9578,11507 L 8684,11438 8686,11409 8688,11379 9582,11447 9580,11477 9578,11507 Z"/><path d="M 8686,11409 L 8684,11438 8682,11438 8686,11409 Z"/><path d="M 8682,11438 L 7820,11327 7824,11298 7828,11268 8690,11379 8686,11409 8682,11438 Z"/><path d="M 7824,11298 L 7820,11327 7818,11327 7824,11298 Z"/><path d="M 7818,11327 L 6991,11176 6997,11146 7002,11117 7829,11268 7824,11298 7818,11327 Z"/><path d="M 6997,11146 L 6991,11176 6990,11176 6997,11146 Z"/><path d="M 6990,11176 L 6203,10986 6210,10957 6217,10928 7004,11117 6997,11146 6990,11176 Z"/><path d="M 6210,10957 L 6203,10986 6201,10986 6210,10957 Z"/><path d="M 6201,10986 L 5459,10760 5468,10731 5477,10703 6219,10928 6210,10957 6201,10986 Z"/><path d="M 5468,10731 L 5459,10760 5458,10760 5468,10731 Z"/><path d="M 5458,10760 L 4765,10501 4775,10472 4786,10444 5479,10703 5468,10731 5458,10760 Z"/><path d="M 4775,10472 L 4765,10501 4763,10500 4775,10472 Z"/><path d="M 4763,10500 L 4124,10209 4136,10182 4148,10155 4788,10445 4775,10472 4763,10500 Z"/><path d="M 4136,10182 L 4124,10209 4122,10208 4136,10182 Z"/><path d="M 4122,10208 L 3541,9889 3555,9862 3570,9836 4150,10156 4136,10182 4122,10208 Z"/><path d="M 3555,9862 L 3541,9889 3538,9887 3555,9862 Z"/><path d="M 3538,9887 L 3020,9541 3037,9516 3054,9491 3572,9837 3555,9862 3538,9887 Z"/><path d="M 3037,9516 L 3020,9541 3018,9539 3037,9516 Z"/><path d="M 3018,9539 L 2567,9168 2586,9145 2605,9122 3056,9493 3037,9516 3018,9539 Z"/><path d="M 2586,9145 L 2567,9168 2565,9166 2586,9145 Z"/><path d="M 2565,9166 L 2186,8772 2207,8752 2229,8731 2608,9124 2586,9145 2565,9166 Z"/><path d="M 2207,8752 L 2186,8772 2183,8769 2207,8752 Z"/><path d="M 2183,8769 L 1880,8356 1905,8338 1929,8320 2231,8734 2207,8752 2183,8769 Z"/><path d="M 1905,8338 L 1880,8356 1879,8353 1905,8338 Z"/><path d="M 1879,8353 L 1757,8139 1783,8125 1809,8110 1931,8323 1905,8338 1879,8353 Z"/><path d="M 1783,8125 L 1757,8139 1756,8137 1783,8125 Z"/><path d="M 1756,8137 L 1656,7919 1683,7907 1710,7894 1811,8112 1783,8125 1756,8137 Z"/><path d="M 1683,7907 L 1656,7919 1655,7917 1683,7907 Z"/><path d="M 1655,7917 L 1575,7695 1604,7685 1632,7675 1711,7897 1683,7907 1655,7917 Z"/><path d="M 1604,7685 L 1575,7695 1575,7693 1604,7685 Z"/><path d="M 1575,7693 L 1517,7467 1546,7460 1576,7453 1633,7678 1604,7685 1575,7693 Z"/><path d="M 1546,7460 L 1517,7467 1517,7465 1546,7460 Z"/><path d="M 1517,7465 L 1482,7236 1512,7232 1541,7227 1576,7456 1546,7460 1517,7465 Z"/><path d="M 1512,7232 L 1482,7236 1482,7233 1512,7232 Z"/><path d="M 1482,7233 L 1470,7002 1500,7000 1530,6998 1542,7230 1512,7232 1482,7233 Z"/><path d="M 1500,7000 L 1470,7002 1470,6998 1500,7000 Z"/><path d="M 1470,6998 L 1482,6767 1512,6768 1542,6770 1530,7002 1500,7000 1470,6998 Z"/><path d="M 1512,6768 L 1482,6767 1482,6764 1512,6768 Z"/><path d="M 1482,6764 L 1517,6535 1546,6540 1576,6544 1541,6773 1512,6768 1482,6764 Z"/><path d="M 1546,6540 L 1517,6535 1517,6533 1546,6540 Z"/><path d="M 1517,6533 L 1575,6307 1604,6315 1633,6322 1576,6547 1546,6540 1517,6533 Z"/><path d="M 1604,6315 L 1575,6307 1575,6305 1604,6315 Z"/><path d="M 1575,6305 L 1655,6083 1683,6093 1711,6103 1632,6325 1604,6315 1575,6305 Z"/><path d="M 1683,6093 L 1655,6083 1656,6081 1683,6093 Z"/><path d="M 1656,6081 L 1756,5863 1783,5875 1811,5888 1710,6106 1683,6093 1656,6081 Z"/><path d="M 1783,5875 L 1756,5863 1757,5861 1783,5875 Z"/><path d="M 1757,5861 L 1879,5647 1905,5662 1931,5677 1809,5890 1783,5875 1757,5861 Z"/><path d="M 1905,5662 L 1879,5647 1880,5644 1905,5662 Z"/><path d="M 1880,5644 L 2183,5231 2207,5248 2231,5266 1929,5680 1905,5662 1880,5644 Z"/><path d="M 2207,5248 L 2183,5231 2186,5228 2207,5248 Z"/><path d="M 2186,5228 L 2565,4834 2586,4855 2608,4876 2229,5269 2207,5248 2186,5228 Z"/><path d="M 2586,4855 L 2565,4834 2567,4832 2586,4855 Z"/><path d="M 2567,4832 L 3018,4461 3037,4484 3056,4507 2605,4878 2586,4855 2567,4832 Z"/><path d="M 3037,4484 L 3018,4461 3020,4459 3037,4484 Z"/><path d="M 3020,4459 L 3538,4113 3555,4138 3572,4163 3054,4509 3037,4484 3020,4459 Z"/><path d="M 3555,4138 L 3538,4113 3541,4111 3555,4138 Z"/><path d="M 3541,4111 L 4122,3792 4136,3818 4150,3844 3570,4164 3555,4138 3541,4111 Z"/><path d="M 4136,3818 L 4122,3792 4124,3791 4136,3818 Z"/><path d="M 4124,3791 L 4763,3500 4775,3528 4788,3555 4148,3845 4136,3818 4124,3791 Z"/><path d="M 4775,3528 L 4763,3500 4765,3499 4775,3528 Z"/><path d="M 4765,3499 L 5458,3240 5468,3269 5479,3297 4786,3556 4775,3528 4765,3499 Z"/><path d="M 5468,3269 L 5458,3240 5459,3240 5468,3269 Z"/><path d="M 5459,3240 L 6201,3014 6210,3043 6219,3072 5477,3297 5468,3269 5459,3240 Z"/><path d="M 6210,3043 L 6201,3014 6203,3014 6210,3043 Z"/><path d="M 6203,3014 L 6990,2824 6997,2854 7004,2883 6217,3072 6210,3043 6203,3014 Z"/><path d="M 6997,2854 L 6990,2824 6991,2824 6997,2854 Z"/><path d="M 6991,2824 L 7818,2673 7824,2702 7829,2732 7002,2883 6997,2854 6991,2824 Z"/><path d="M 7824,2702 L 7818,2673 7820,2673 7824,2702 Z"/><path d="M 7820,2673 L 8682,2562 8686,2591 8690,2621 7828,2732 7824,2702 7820,2673 Z"/><path d="M 8686,2591 L 8682,2562 8684,2562 8686,2591 Z"/><path d="M 8684,2562 L 9578,2493 9580,2523 9582,2553 8688,2621 8686,2591 8684,2562 Z"/><path d="M 9580,2523 L 9578,2493 9579,2493 9580,2523 Z"/><path d="M 9579,2493 L 10499,2470 10500,2500 10501,2530 9581,2553 9580,2523 9579,2493 Z"/><path d="M 10500,2500 L 10499,2470 10501,2470 10500,2500 Z"/><path d="M 10501,2470 L 11421,2493 11420,2523 11419,2553 10499,2530 10500,2500 10501,2470 Z"/><path d="M 11420,2523 L 11421,2493 11422,2493 11420,2523 Z"/><path d="M 11422,2493 L 12316,2562 12314,2591 12312,2621 11418,2553 11420,2523 11422,2493 Z"/><path d="M 12314,2591 L 12316,2562 12318,2562 12314,2591 Z"/><path d="M 12318,2562 L 13180,2673 13176,2702 13172,2732 12310,2621 12314,2591 12318,2562 Z"/><path d="M 13176,2702 L 13180,2673 13182,2673 13176,2702 Z"/><path d="M 13182,2673 L 14009,2824 14003,2854 13998,2883 13171,2732 13176,2702 13182,2673 Z"/><path d="M 14003,2854 L 14009,2824 14010,2824 14003,2854 Z"/><path d="M 14010,2824 L 14797,3014 14790,3043 14783,3072 13996,2883 14003,2854 14010,2824 Z"/><path d="M 14790,3043 L 14797,3014 14799,3014 14790,3043 Z"/><path d="M 14799,3014 L 15541,3240 15532,3269 15523,3297 14781,3072 14790,3043 14799,3014 Z"/><path d="M 15532,3269 L 15541,3240 15542,3240 15532,3269 Z"/><path d="M 15542,3240 L 16235,3499 16225,3528 16214,3556 15521,3297 15532,3269 15542,3240 Z"/><path d="M 16225,3528 L 16235,3499 16237,3500 16225,3528 Z"/><path d="M 16237,3500 L 16876,3791 16864,3818 16852,3845 16212,3555 16225,3528 16237,3500 Z"/><path d="M 16864,3818 L 16876,3791 16878,3792 16864,3818 Z"/><path d="M 16878,3792 L 17459,4111 17445,4138 17430,4164 16850,3844 16864,3818 16878,3792 Z"/><path d="M 17445,4138 L 17459,4111 17462,4113 17445,4138 Z"/><path d="M 17462,4113 L 17980,4459 17963,4484 17946,4509 17428,4163 17445,4138 17462,4113 Z"/><path d="M 17963,4484 L 17980,4459 17982,4461 17963,4484 Z"/><path d="M 17982,4461 L 18433,4832 18414,4855 18395,4878 17944,4507 17963,4484 17982,4461 Z"/><path d="M 18414,4855 L 18433,4832 18435,4834 18414,4855 Z"/><path d="M 18435,4834 L 18814,5228 18793,5248 18771,5269 18392,4876 18414,4855 18435,4834 Z"/><path d="M 18793,5248 L 18814,5228 18817,5231 18793,5248 Z"/><path d="M 18817,5231 L 19120,5644 19095,5662 19071,5680 18769,5266 18793,5248 18817,5231 Z"/><path d="M 19095,5662 L 19120,5644 19121,5647 19095,5662 Z"/><path d="M 19121,5647 L 19243,5861 19217,5875 19191,5890 19069,5677 19095,5662 19121,5647 Z"/><path d="M 19217,5875 L 19243,5861 19244,5863 19217,5875 Z"/><path d="M 19244,5863 L 19344,6081 19317,6093 19290,6106 19189,5888 19217,5875 19244,5863 Z"/><path d="M 19317,6093 L 19344,6081 19345,6083 19317,6093 Z"/><path d="M 19345,6083 L 19425,6305 19396,6315 19368,6325 19289,6103 19317,6093 19345,6083 Z"/><path d="M 19396,6315 L 19425,6305 19425,6307 19396,6315 Z"/><path d="M 19425,6307 L 19483,6533 19454,6540 19424,6547 19367,6322 19396,6315 19425,6307 Z"/><path d="M 19454,6540 L 19483,6533 19483,6535 19454,6540 Z"/><path d="M 19483,6535 L 19518,6764 19488,6768 19459,6773 19424,6544 19454,6540 19483,6535 Z"/><path d="M 19488,6768 L 19518,6764 19518,6767 19488,6768 Z"/><path d="M 19518,6767 L 19530,6998 19500,7000 19470,7002 19458,6770 19488,6768 19518,6767 Z"/><path d="M 19500,7000 L 19530,6998 19530,7002 19500,7000 Z"/><path d="M 19530,7002 L 19518,7233 19488,7232 19458,7230 19470,6998 19500,7000 19530,7002 Z"/><path d="M 19488,7232 L 19518,7233 19518,7236 19488,7232 Z"/><path d="M 19518,7236 L 19483,7465 19454,7460 19424,7456 19459,7227 19488,7232 19518,7236 Z"/><path d="M 19454,7460 L 19483,7465 19483,7467 19454,7460 Z"/><path d="M 19483,7467 L 19425,7693 19396,7685 19367,7678 19424,7453 19454,7460 19483,7467 Z"/><path d="M 19396,7685 L 19425,7693 19425,7695 19396,7685 Z"/><path d="M 19425,7695 L 19345,7917 19317,7907 19289,7897 19368,7675 19396,7685 19425,7695 Z"/><path d="M 19317,7907 L 19345,7917 19344,7919 19317,7907 Z"/><path d="M 19344,7919 L 19244,8137 19217,8125 19189,8112 19290,7894 19317,7907 19344,7919 Z"/><path d="M 19217,8125 L 19244,8137 19243,8139 19217,8125 Z"/><path d="M 19243,8139 L 19121,8353 19095,8338 19069,8323 19191,8110 19217,8125 19243,8139 Z"/><path d="M 19095,8338 L 19121,8353 19120,8356 19095,8338 Z"/><path d="M 19120,8356 L 18817,8769 18793,8752 18769,8734 19071,8320 19095,8338 19120,8356 Z"/><path d="M 18793,8752 L 18817,8769 18814,8772 18793,8752 Z"/><path d="M 18814,8772 L 18435,9166 18414,9145 18392,9124 18771,8731 18793,8752 18814,8772 Z"/><path d="M 18414,9145 L 18435,9166 18433,9168 18414,9145 Z"/><path d="M 18433,9168 L 17982,9539 17963,9516 17944,9493 18395,9122 18414,9145 18433,9168 Z"/><path d="M 17963,9516 L 17982,9539 17980,9541 17963,9516 Z"/><path d="M 17980,9541 L 17462,9887 17445,9862 17428,9837 17946,9491 17963,9516 17980,9541 Z"/><path d="M 17445,9862 L 17462,9887 17459,9889 17445,9862 Z"/><path d="M 17459,9889 L 16878,10208 16864,10182 16850,10156 17430,9836 17445,9862 17459,9889 Z"/><path d="M 16864,10182 L 16878,10208 16876,10209 16864,10182 Z"/><path d="M 16876,10209 L 16237,10500 16225,10472 16212,10445 16852,10155 16864,10182 16876,10209 Z"/><path d="M 16225,10472 L 16237,10500 16235,10501 16225,10472 Z"/><path d="M 16235,10501 L 15542,10760 15532,10731 15521,10703 16214,10444 16225,10472 16235,10501 Z"/><path d="M 15532,10731 L 15542,10760 15541,10760 15532,10731 Z"/><path d="M 15541,10760 L 14799,10986 14790,10957 14781,10928 15523,10703 15532,10731 15541,10760 Z"/><path d="M 14790,10957 L 14799,10986 14797,10986 14790,10957 Z"/><path d="M 14797,10986 L 14010,11176 14003,11146 13996,11117 14783,10928 14790,10957 14797,10986 Z"/><path d="M 14003,11146 L 14010,11176 14009,11176 14003,11146 Z"/><path d="M 14009,11176 L 13182,11327 13176,11298 13171,11268 13998,11117 14003,11146 14009,11176 Z"/><path d="M 13176,11298 L 13182,11327 13180,11327 13176,11298 Z"/><path d="M 13180,11327 L 12318,11438 12314,11409 12310,11379 13172,11268 13176,11298 13180,11327 Z"/><path d="M 12314,11409 L 12318,11438 12316,11438 12314,11409 Z"/><path d="M 12316,11438 L 11422,11507 11420,11477 11418,11447 12312,11379 12314,11409 12316,11438 Z"/><path d="M 11420,11477 L 11422,11507 11421,11507 11420,11477 Z"/><path d="M 11421,11507 L 10501,11530 10500,11500 10499,11470 11419,11447 11420,11477 11421,11507 Z"/><path d="M 10500,11500 L 10501,11530 10499,11530 10500,11500 Z"/></g><g/></g></g><g><desc>Drawing</desc><g><g style="stroke:none;fill:rgb(0,0,0)"><path d="M 1500,6975 L 19500,6975 19500,7025 1500,7025 1500,6975 Z"/></g><g/></g></g><g><desc>Drawing</desc><g><g style="stroke:none;fill:rgb(0,0,0)"><path d="M 10475,11500 L 10475,2500 10525,2500 10525,11500 10475,11500 Z"/></g><g/></g></g><g><desc>Drawing</desc><g><g style="stroke:none;fill:rgb(0,0,0)"><path d="M 2605,6963 L 2615,6927 2633,6891 2658,6858 2691,6833 2727,6815 2763,6805 2801,6800 2837,6805 2874,6815 2910,6833 2942,6858 2967,6891 2985,6927 2997,6963 3000,7001 2997,7037 2985,7074 2967,7109 2942,7142 2910,7167 2874,7185 2837,7195 2801,7200 2763,7195 2727,7185 2691,7167 2658,7142 2633,7109 2615,7074 2605,7037 2600,7001 2605,6963 Z"/></g><g style="stroke:rgb(0,0,0);fill:none"><path style="fill:none" d="M 2680,7000 L 1500,7000 1500,7000"/></g><g/></g></g><g><desc>Drawing</desc><g><g style="stroke:none;fill:rgb(0,0,0)"><path d="M 18395,7037 L 18385,7073 18367,7109 18342,7142 18309,7167 18273,7185 18237,7195 18199,7200 18163,7195 18126,7185 18090,7167 18058,7142 18033,7109 18015,7073 18003,7037 18000,6999 18003,6963 18015,6926 18033,6891 18058,6858 18090,6833 18126,6815 18163,6805 18199,6800 18237,6805 18273,6815 18309,6833 18342,6858 18367,6891 18385,6926 18395,6963 18400,6999 18395,7037 Z"/></g><g style="stroke:rgb(0,0,0);fill:none"><path style="fill:none" d="M 18320,7000 L 19500,7000 19500,7000"/></g><g/></g></g></g></svg>